<svg xmlns="http://www.w3.org/2000/svg" version="1.1" xmlns:xlink="http://www.w3.org/1999/xlink" xmlns:svgjs="http://svgjs.dev/svgjs" width="1500" height="1500" viewBox="0 0 1500 1500"><rect width="1500" height="1500" fill="#ffffff"></rect><g transform="matrix(0.6666666666666666,0,0,0.6666666666666666,249.50000000000006,249.50074710775152)"><svg viewBox="0 0 280 280" data-background-color="#ffffff" preserveAspectRatio="xMidYMid meet" height="1500" width="1500" xmlns="http://www.w3.org/2000/svg" xmlns:xlink="http://www.w3.org/1999/xlink"><g id="tight-bounds" transform="matrix(1,0,0,1,0.13999999999998636,0.13979080982957726)"><svg viewBox="0 0 279.72 279.72" height="279.72" width="279.72"><g><svg viewBox="0 0 279.72 279.72" height="279.72" width="279.72"><g><svg viewBox="0 0 279.72 279.72" height="279.72" width="279.72"><g id="textblocktransform"><svg viewBox="0 0 279.72 279.72" height="279.72" width="279.72" id="textblock"><g><svg viewBox="0 0 279.72 279.72" height="279.72" width="279.72"><g transform="matrix(1,0,0,1,76.4380133708545,73.92936372216631)"><svg viewBox="0 0 126.84397325829102 131.8612725556674" height="131.8612725556674" width="126.84397325829102"><g id="icon-0"><svg xmlns="http://www.w3.org/2000/svg" xmlns:xlink="http://www.w3.org/1999/xlink" version="1.1" x="0" y="0" viewBox="18.323 17.068999999999996 63.355 65.86100000000002" enable-background="new 0 0 100 100" xml:space="preserve" height="131.8612725556674" width="126.84397325829102" class="icon-xg-0" data-fill-palette-color="accent" id="xg-0"><g fill="#ffc312" data-fill-palette-color="accent"><path d="M41.086 21.513c0.172-0.39 0.271-0.819 0.271-1.273 0-1.748-1.422-3.17-3.17-3.17s-3.17 1.422-3.17 3.17 1.422 3.17 3.17 3.17c0.375 0 0.73-0.077 1.064-0.197l24.309 26.045-13.675 27.35c-0.06-0.003-0.117-0.018-0.178-0.018-1.748 0-3.17 1.422-3.17 3.17s1.422 3.17 3.17 3.17c1.748 0 3.17-1.422 3.17-3.17 0-0.777-0.292-1.479-0.757-2.031l14.064-28.13c0.233-0.467 0.152-1.03-0.204-1.412L41.086 21.513z" fill="#ffc312" data-fill-palette-color="accent"></path><path d="M58.506 49.599c0.24-0.481 0.146-1.062-0.234-1.442L31.527 21.412c0.146-0.363 0.23-0.757 0.23-1.172 0-1.748-1.422-3.17-3.17-3.17s-3.17 1.422-3.17 3.17 1.422 3.17 3.17 3.17c0.415 0 0.808-0.085 1.171-0.23l14.67 14.67c-0.029 0.024-0.065 0.034-0.092 0.061L31.114 51.134l-6.682-6.682c0.145-0.363 0.23-0.757 0.23-1.172 0-1.748-1.422-3.17-3.169-3.17-1.748 0-3.17 1.422-3.17 3.17 0 1.748 1.422 3.17 3.17 3.17 0.414 0 0.808-0.085 1.171-0.23l6.683 6.682-7.089 7.089c-0.088 0.088-0.142 0.193-0.198 0.297-0.287 0.229-0.482 0.566-0.482 0.962v6.018c-0.365 0.149-0.705 0.363-0.992 0.65-1.235 1.236-1.235 3.247 0 4.483 0.599 0.599 1.395 0.929 2.242 0.929s1.643-0.33 2.241-0.929c0.599-0.599 0.929-1.395 0.929-2.241s-0.33-1.643-0.929-2.242c-0.287-0.287-0.626-0.501-0.991-0.65v-5.562l22.028-22.028c0.027-0.027 0.037-0.063 0.061-0.092L48.9 42.32 27.704 63.516c-0.008 0.008-0.01 0.019-0.018 0.027-0.104 0.11-0.192 0.236-0.251 0.379-0.063 0.153-0.097 0.315-0.097 0.479v10.548c-0.365 0.149-0.705 0.363-0.992 0.65-1.236 1.235-1.236 3.247 0 4.483 0.599 0.599 1.395 0.928 2.242 0.928 0.847 0 1.643-0.329 2.241-0.928 1.236-1.236 1.236-3.247 0-4.483-0.287-0.287-0.626-0.501-0.991-0.65V64.917l20.83-20.83 5.199 5.199L42.206 76.608c-0.061-0.003-0.118-0.018-0.179-0.018-1.748 0-3.17 1.422-3.17 3.17s1.422 3.17 3.17 3.17c1.748 0 3.17-1.422 3.17-3.17 0-0.777-0.292-1.479-0.757-2.031L58.506 49.599z" fill="#ffc312" data-fill-palette-color="accent"></path><path d="M78.508 74.67c-0.257 0-0.503 0.039-0.742 0.097l-3.768-5.023V49.04c0-0.313-0.118-0.614-0.329-0.845l-8.208-8.954 6.114-6.114c0.363 0.146 0.757 0.231 1.172 0.231 1.748 0 3.169-1.422 3.169-3.17 0-1.748-1.422-3.17-3.169-3.17-1.748 0-3.17 1.422-3.17 3.17 0 0.415 0.085 0.808 0.23 1.171l-6.038 6.037-3.066-3.345 10.872-10.872c0.363 0.145 0.757 0.23 1.172 0.23 1.748 0 3.169-1.422 3.169-3.17s-1.422-3.17-3.169-3.17c-1.748 0-3.17 1.422-3.17 3.17 0 0.415 0.085 0.809 0.23 1.172L59.013 32.207l-6.135-6.693V23.15c1.127-0.486 1.92-1.607 1.92-2.911 0-1.748-1.422-3.17-3.17-3.17-1.748 0-3.17 1.422-3.17 3.17 0 1.304 0.792 2.425 1.92 2.911V26c0 0.061 0.026 0.114 0.035 0.172 0.014 0.095 0.021 0.189 0.057 0.279 0.033 0.086 0.088 0.156 0.139 0.231 0.035 0.053 0.053 0.114 0.098 0.162l20.792 22.682V70.16c0 0.271 0.087 0.534 0.25 0.75l4.021 5.362c-0.267 0.464-0.432 0.995-0.432 1.568 0 1.748 1.422 3.17 3.17 3.17 1.748 0 3.17-1.422 3.17-3.17S80.255 74.67 78.508 74.67z" fill="#ffc312" data-fill-palette-color="accent"></path></g></svg></g></svg></g><g id="text-0"><path d="M35.111 93.435l-1.79 5.249-12.295 1.033-0.158 0.465-0.64 1.876 10.699 3.648-1.661 4.871-26.505-9.038 2.133-6.254c2.18-6.393 5.866-8.704 11.059-6.934v0c1.611 0.549 2.913 1.395 3.906 2.538 0.995 1.136 1.567 2.53 1.715 4.181v0zM17.243 99.242c0.515-1.51 0.531-2.724 0.047-3.644-0.49-0.922-1.512-1.647-3.065-2.177v0c-1.459-0.498-2.647-0.511-3.562-0.04-0.921 0.469-1.657 1.508-2.206 3.119v0l-0.472 1.383 8.709 2.97z" fill="#111111" data-fill-palette-color="primary"></path><path d="M40.784 63.03c0.199 0.134 0.747 0.551 1.644 1.251v0l-6.177 9.178c1.898 1.149 3.397 1.695 4.497 1.639 1.094-0.06 1.981-0.594 2.659-1.602v0c0.47-0.698 0.776-1.404 0.92-2.12 0.138-0.72 0.17-1.579 0.094-2.58v0l3.503-0.129c0.474 2.596-0.029 4.993-1.509 7.191v0c-1.569 2.331-3.581 3.576-6.036 3.734-2.446 0.156-5.137-0.754-8.072-2.729v0c-2.94-1.979-4.862-4.133-5.764-6.462-0.904-2.338-0.626-4.593 0.835-6.763v0c1.405-2.088 3.255-3.204 5.548-3.35 2.298-0.151 4.917 0.763 7.858 2.742zM37.087 66.407l-0.232-0.157c-1.683-1.133-3.046-1.756-4.088-1.869-1.047-0.117-1.873 0.272-2.476 1.169v0c-0.555 0.825-0.604 1.71-0.145 2.654 0.453 0.941 1.591 2.089 3.414 3.444v0z" fill="#111111" data-fill-palette-color="primary"></path><path d="M63.876 40.398c0.159 0.18 0.583 0.723 1.273 1.627v0l-8.3 7.314c1.545 1.592 2.857 2.5 3.935 2.724 1.074 0.219 2.066-0.073 2.977-0.875v0c0.631-0.556 1.107-1.162 1.428-1.818 0.316-0.661 0.564-1.485 0.745-2.472v0l3.42 0.763c-0.199 2.631-1.293 4.822-3.281 6.574v0c-2.108 1.858-4.37 2.552-6.786 2.082-2.406-0.469-4.778-2.031-7.116-4.685v0c-2.343-2.659-3.656-5.23-3.939-7.711-0.282-2.491 0.558-4.602 2.521-6.331v0c1.888-1.663 3.96-2.275 6.217-1.835 2.261 0.436 4.563 1.984 6.906 4.643zM59.444 42.729l-0.185-0.211c-1.341-1.522-2.502-2.471-3.481-2.844-0.983-0.379-1.881-0.211-2.691 0.503v0c-0.746 0.657-1.017 1.501-0.813 2.531 0.2 1.025 1.01 2.424 2.43 4.197v0z" fill="#111111" data-fill-palette-color="primary"></path><path d="M80.23 18.104c1.034-0.529 2.062-0.835 3.086-0.916 1.014-0.084 2.099 0.05 3.254 0.404v0l-0.625 3.503c-0.751-0.163-1.413-0.225-1.985-0.187-0.576 0.032-1.14 0.19-1.693 0.473v0c-1.081 0.554-1.635 1.486-1.661 2.796-0.029 1.305 0.576 3.169 1.817 5.593v0c1.208 2.359 2.34 3.875 3.397 4.548 1.057 0.674 2.115 0.74 3.173 0.198v0c0.529-0.271 0.961-0.612 1.297-1.024 0.333-0.418 0.683-0.98 1.05-1.684v0l3.301 1.549c-0.787 2.255-2.132 3.87-4.033 4.843v0c-2.454 1.256-4.79 1.395-7.008 0.416-2.209-0.976-4.15-3.098-5.823-6.366v0c-1.086-2.121-1.711-4.111-1.875-5.969-0.164-1.858 0.131-3.486 0.885-4.884 0.757-1.407 1.905-2.505 3.443-3.293z" fill="#111111" data-fill-palette-color="primary"></path><path d="M120.468 16.338c0.055 0.234 0.174 0.912 0.356 2.035v0l-10.767 2.54c0.613 2.132 1.342 3.551 2.187 4.257 0.844 0.699 1.857 0.909 3.039 0.631v0c0.819-0.193 1.524-0.503 2.116-0.931 0.59-0.434 1.197-1.044 1.821-1.829v0l2.658 2.284c-1.415 2.227-3.413 3.644-5.991 4.253v0c-2.735 0.645-5.057 0.192-6.967-1.361-1.901-1.547-3.258-4.042-4.07-7.485v0c-0.814-3.449-0.761-6.335 0.159-8.657 0.925-2.33 2.66-3.796 5.207-4.397v0c2.449-0.578 4.565-0.141 6.347 1.311 1.789 1.45 3.091 3.9 3.905 7.349zM115.461 16.306l-0.065-0.273c-0.466-1.975-1.042-3.358-1.729-4.149-0.689-0.798-1.559-1.072-2.612-0.824v0c-0.968 0.228-1.604 0.845-1.909 1.849-0.306 0.998-0.251 2.614 0.166 4.847v0z" fill="#111111" data-fill-palette-color="primary"></path><path d="M179.607 3.476l-5.559 27.446-6.437-1.304-2.404-23.89c-0.17 1.947-0.358 3.734-0.565 5.361-0.207 1.627-0.533 3.539-0.978 5.737v0l-2.333 11.52-4.445-0.9 5.559-27.446 6.398 1.296 2.394 23.887c0.036-0.987 0.156-2.369 0.359-4.146 0.21-1.776 0.497-3.563 0.862-5.362v0l2.655-13.109z" fill="#111111" data-fill-palette-color="primary"></path><path d="M211.096 24.326l-9.786 19.071-3.857-1.98 1.025-2.523c-1.106 0.678-2.159 1.071-3.16 1.18-0.995 0.112-1.986-0.085-2.971-0.591v0c-1.396-0.716-2.244-1.774-2.546-3.174-0.296-1.397-0.037-2.888 0.776-4.474v0l7.327-14.279 4.436 2.276-7.194 14.021c-0.765 1.491-0.643 2.495 0.367 3.013v0c0.576 0.296 1.207 0.338 1.893 0.127 0.686-0.211 1.427-0.625 2.225-1.244v0l7.029-13.7z" fill="#111111" data-fill-palette-color="primary"></path><path d="M235.766 42.969c1.139 1.03 1.668 2.255 1.588 3.677-0.08 1.422-0.744 2.823-1.993 4.204v0l-10.656 11.785-3.699-3.344 10.274-11.362c0.689-0.762 1.078-1.406 1.165-1.93 0.092-0.52-0.063-0.961-0.464-1.323v0c-0.842-0.761-2.39-0.721-4.644 0.12v0l-10.058 11.124-3.699-3.344 14.377-15.899 3.215 2.908-1.606 2.313c1.306-0.349 2.449-0.454 3.429-0.314 0.985 0.144 1.909 0.606 2.771 1.385z" fill="#111111" data-fill-palette-color="primary"></path><path d="M251.722 81.378c-0.202 0.129-0.803 0.466-1.802 1.009v0l-5.96-9.32c-1.809 1.284-2.907 2.441-3.293 3.473-0.381 1.028-0.244 2.053 0.41 3.076v0c0.453 0.709 0.979 1.271 1.579 1.689 0.605 0.413 1.381 0.785 2.328 1.113v0l-1.276 3.264c-2.57-0.599-4.568-2.015-5.995-4.247v0c-1.514-2.367-1.854-4.709-1.022-7.023 0.831-2.306 2.736-4.412 5.717-6.318v0c2.986-1.909 5.727-2.814 8.223-2.715 2.505 0.101 4.462 1.254 5.871 3.459v0c1.356 2.12 1.643 4.261 0.864 6.423-0.776 2.168-2.658 4.207-5.644 6.117zM250.096 76.642l0.236-0.151c1.709-1.093 2.824-2.095 3.343-3.005 0.525-0.914 0.496-1.826-0.086-2.738v0c-0.536-0.838-1.328-1.234-2.377-1.189-1.043 0.041-2.549 0.628-4.519 1.761v0z" fill="#111111" data-fill-palette-color="primary"></path><path d="M267.96 92.788l4.165 12.5-3.42 1.14-15.886-3.72 2.753 8.264-3.872 0.826-4.304-12.918 3.42-1.14 15.896 3.717-2.475-7.428z" fill="#111111" data-fill-palette-color="primary"></path><path d="M3.515 142.189c0-5.908 4.789-10.697 10.697-10.697 5.908 0 10.697 4.789 10.697 10.697 0 5.908-4.789 10.697-10.697 10.698-5.908 0-10.697-4.789-10.697-10.698z" fill="#111111" data-fill-palette-color="primary"></path><path d="M255.564 142.189c0-5.908 4.789-10.697 10.698-10.697 5.908 0 10.697 4.789 10.697 10.697 0 5.908-4.789 10.697-10.697 10.698-5.908 0-10.697-4.789-10.698-10.698z" fill="#111111" data-fill-palette-color="primary"></path></g><g id="text-1"><path d="M10.443 185.45l-1.572-4.9 26.664-8.555 4.136 12.889-3.845 0.634-2.389-7.445-8.141 2.612 2.08 6.482-3.661 1.175-2.08-6.483z" fill="#5b7c99" data-fill-palette-color="secondary"></path><path d="M51.135 216.452l-17.615 12.213-2.47-3.562 2.093-1.743c-1.298 0.072-2.413-0.077-3.344-0.448-0.931-0.37-1.712-1.01-2.343-1.92v0c-0.894-1.289-1.144-2.622-0.75-4 0.397-1.372 1.328-2.565 2.792-3.581v0l13.189-9.144 2.835 4.089-12.95 8.979c-1.377 0.955-1.742 1.898-1.096 2.831v0c0.373 0.538 0.911 0.875 1.616 1.012 0.695 0.135 1.544 0.119 2.548-0.05v0l12.655-8.773z" fill="#5b7c99" data-fill-palette-color="secondary"></path><path d="M56.449 251.774c-1.139-0.916-1.754-1.994-1.845-3.233-0.101-1.238 0.324-2.447 1.273-3.627v0l16.078-19.986 4.217 2.712-16.285 20.243c-0.218 0.27-0.33 0.544-0.338 0.82-0.009 0.267 0.114 0.503 0.368 0.708v0c0.146 0.117 0.303 0.209 0.472 0.277 0.169 0.067 0.276 0.12 0.323 0.157v0l-1.377 3.261c-1.04-0.177-2.002-0.621-2.886-1.332z" fill="#5b7c99" data-fill-palette-color="secondary"></path><path d="M84.879 268.643c-1.325-0.618-2.179-1.517-2.564-2.698-0.393-1.178-0.27-2.453 0.371-3.826v0l10.842-23.246 4.743 1.626-10.982 23.546c-0.147 0.315-0.191 0.607-0.133 0.877 0.055 0.261 0.231 0.461 0.527 0.599v0c0.169 0.079 0.344 0.131 0.524 0.156 0.18 0.025 0.297 0.05 0.351 0.076v0l-0.559 3.495c-1.052 0.076-2.092-0.125-3.12-0.605z" fill="#5b7c99" data-fill-palette-color="secondary"></path><path d="M148.339 250.528c1.618-0.111 3.066 0.074 4.343 0.555 1.277 0.481 2.481 1.251 3.611 2.311v0l-2.188 2.92c-0.891-0.702-1.746-1.212-2.564-1.53-0.825-0.325-1.68-0.457-2.566-0.396v0c-1.025 0.07-1.813 0.442-2.362 1.115-0.549 0.673-0.789 1.523-0.719 2.548v0c0.07 1.025 0.437 1.84 1.101 2.443 0.664 0.603 1.922 1.193 3.775 1.769v0c2.382 0.787 4.163 1.775 5.341 2.965 1.179 1.19 1.848 2.947 2.008 5.271v0c0.109 1.585-0.155 3.058-0.791 4.42-0.636 1.355-1.611 2.455-2.925 3.301-1.306 0.852-2.862 1.34-4.666 1.465v0c-1.864 0.128-3.505-0.091-4.922-0.656-1.424-0.571-2.744-1.424-3.959-2.559v0l2.393-3.004c1.031 0.792 2.009 1.388 2.933 1.786 0.917 0.399 1.902 0.562 2.953 0.49v0c1.239-0.085 2.178-0.534 2.818-1.348 0.633-0.819 0.904-1.888 0.814-3.206v0c-0.079-1.159-0.448-2.087-1.104-2.785-0.657-0.704-1.829-1.31-3.517-1.816v0c-2.552-0.828-4.419-1.851-5.599-3.068-1.181-1.217-1.838-2.798-1.972-4.742v0c-0.101-1.478 0.168-2.821 0.808-4.029 0.633-1.208 1.559-2.184 2.779-2.93 1.22-0.753 2.612-1.183 4.177-1.29z" fill="#5b7c99" data-fill-palette-color="secondary"></path><path d="M191.576 265.243l2.718 2.27c-0.864 1.453-2.13 2.494-3.798 3.123v0c-1.742 0.657-3.258 0.658-4.546 0.003-1.289-0.655-2.257-1.842-2.905-3.559v0l-4.405-11.682-2.351 0.887-1.272-3.372 2.351-0.887-1.675-4.44 4.45-2.331 1.89 5.011 3.794-1.43 0.813 3.545-3.335 1.258 4.405 11.681c0.457 1.212 1.204 1.622 2.241 1.231v0c0.331-0.125 0.605-0.278 0.822-0.459 0.223-0.184 0.491-0.467 0.803-0.849z" fill="#5b7c99" data-fill-palette-color="secondary"></path><path d="M224.681 243.819c0.417 0.563 0.801 0.926 1.154 1.089 0.354 0.153 0.768 0.191 1.242 0.115v0l1.164 3.274c-0.974 0.546-1.862 0.833-2.663 0.861-0.805 0.023-1.621-0.25-2.448-0.818v0c0.224 2.391-0.565 4.253-2.368 5.587v0c-1.433 1.06-2.93 1.42-4.493 1.081-1.566-0.344-2.943-1.319-4.129-2.923v0c-1.381-1.868-1.851-3.72-1.408-5.558 0.437-1.834 1.763-3.57 3.98-5.21v0l1.336-0.988-0.893-1.207c-0.806-1.089-1.564-1.716-2.274-1.88-0.71-0.164-1.487 0.066-2.33 0.689v0c-1.025 0.758-2.087 1.983-3.184 3.675v0l-2.839-1.935c0.58-1.035 1.261-1.999 2.044-2.894 0.779-0.9 1.592-1.663 2.441-2.29v0c3.778-2.794 7.08-2.28 9.905 1.54v0zM219.692 250.223c1.041-0.77 1.303-2.072 0.785-3.905v0l-2.673-3.614-0.942 0.696c-1.111 0.822-1.737 1.67-1.877 2.547-0.141 0.876 0.176 1.837 0.949 2.883v0c0.655 0.885 1.304 1.443 1.948 1.674 0.638 0.234 1.241 0.141 1.81-0.281z" fill="#5b7c99" data-fill-palette-color="secondary"></path><path d="M234.184 208.528c0.687-0.936 1.47-1.67 2.348-2.201 0.869-0.53 1.899-0.895 3.091-1.097v0l1.01 3.412c-0.744 0.191-1.364 0.431-1.859 0.722-0.495 0.291-0.926 0.686-1.293 1.187v0c-0.719 0.979-0.799 2.059-0.242 3.238 0.558 1.18 1.935 2.575 4.13 4.187v0c2.136 1.568 3.827 2.416 5.075 2.545 1.247 0.129 2.222-0.286 2.924-1.243v0c0.352-0.479 0.585-0.978 0.702-1.497 0.111-0.523 0.172-1.182 0.184-1.976v0l3.646-0.094c0.306 2.369-0.173 4.415-1.437 6.136v0c-1.631 2.222-3.658 3.392-6.08 3.511-2.412 0.117-5.098-0.911-8.057-3.083v0c-1.921-1.41-3.371-2.909-4.35-4.497-0.979-1.588-1.444-3.176-1.396-4.764 0.046-1.597 0.581-3.092 1.604-4.486z" fill="#5b7c99" data-fill-palette-color="secondary"></path><path d="M238.749 183.733l1.152-4.88 28.829 10.127-1.653 4.704zM250.48 176.255l1.609-4.581 7.068 8.489 13.319-1.847-1.772 5.044-12.96 1.549z" fill="#5b7c99" data-fill-palette-color="secondary"></path></g></svg></g></svg></g></svg></g><g></g></svg></g><defs></defs></svg><rect width="279.72" height="279.72" fill="none" stroke="none" visibility="hidden"></rect></g></svg></g></svg>